An ex-con sets out to avenge his brother's death after they were double-crossed during a heist years ago. During his campaign, however, he's tracked by a veteran cop and an egocentric hit man..
 
http://www.imdb.com/title/tt1433108/

Subs: Arabic, Brazilian/Portuguese, Czech, Danish, Dutch, English, Farsi Persian, Finnish, Greek, Hebrew, Indonesian, Italian, Korean, Norwegian, Romanian, Serbian, Slovenian, Swedish and Turkish.


'Faster' vertelt het verhaal van Driver (Dwayne Johnson), een man die net vrijkomt na een jarenlange gevangenisstraf. Hij zat vast omdat hij er tijdens een bankoverval in is geluisd. Daarnaast is zijn broer toen vermoord. Nu wil Driver maar één ding; zijn broer wreken.
 
http://www.moviemeter.nl/film/64601

Ondertitels: Arabisch, Braziliaans/Portugees, Deens, Engels, Fins, Grieks, Hebreews, Indonesisch, Italiaans, Koreaans, Nederlands, Noors, Roemeens, Servisch, Sloveens, Tjechisch, Turks en Zweeds.

General
Complete name                    : Faster-AC3-XviD-Multisubs-DVDRip 2010 TBS\Faster-AC3-XviD-Multisubs-DVDRip 2010 TBS.avi
Format                           : AVI
Format/Info                      : Audio Video Interleave
File size                        : 1.36 GiB
Duration                         : 1h 37mn
Overall bit rate                 : 1 991 Kbps
Writing application              : VirtualDubMod 1.5.4.1 (build 2178/release)
Writing library                  : VirtualDubMod build 2178/release
Source:                          : Faster DVDR-BOW

Video
ID                               : 0
Format                           : MPEG-4 Visual
Format profile                   : Simple@L3
Format settings, BVOP            : No
Format settings, QPel            : No
Format settings, GMC             : No warppoints
Format settings, Matrix          : Default (H.263)
Codec ID                         : XVID
Codec ID/Hint                    : XviD
Duration                         : 1h 37mn
Bit rate                         : 1 534 Kbps
Width                            : 720 pixels
Height                           : 304 pixels
Display aspect ratio             : 2.35:1
Frame rate                       : 23.976 fps
Resolution                       : 8 bits
Colorimetry                      : 4:2:0
Scan type                        : Progressive
Bits/(Pixel*Frame)               : 0.292
Stream size                      : 1.05 GiB (77%)
Writing library                  : XviD 1.1.2 (UTC 2006-11-01)

Audio
ID                               : 1
Format                           : AC-3
Format/Info                      : Audio Coding 3
Codec ID                         : 2000
Duration                         : 1h 37mn
Bit rate mode                    : Constant
Bit rate                         : 448 Kbps
Channel(s)                       : 6 channels
Channel positions                : Front: L C R, Surround: L R, LFE
Sampling rate                    : 48.0 KHz
Stream size                      : 314 MiB (22%)
Alignment                        : Split accross interleaves
Interleave, duration             : 42 ms (1.00 video frame)
Interleave, preload duration     : 500 ms

Thanks to Simply ReleaseS Team

Blackbeard  TBS

